Coordinates
version=1
nRows=22
nColumns=24
inDegrees=yes

Units are S.I. units (second, meters, Newtons, ...)
Angles are in degrees.

endheader
time	pelvis_tilt	pelvis_list	pelvis_rotation	pelvis_tx	pelvis_ty	pelvis_tz	hip_flexion_r	hip_adduction_r	hip_rotation_r	knee_angle_r	ankle_angle_r	subtalar_angle_r	mtp_angle_r	hip_flexion_l	hip_adduction_l	hip_rotation_l	knee_angle_l	ankle_angle_l	subtalar_angle_l	mtp_angle_l	lumbar_extension	lumbar_bending	lumbar_rotation
      4.91000000	     -8.06525239	     -1.89409641	     12.12160734	     -1.04808678	     -0.02428905	     -0.31742373	     31.63961685	     -3.42191180	     -8.92499045	    -11.88948318	     -2.80786011	      5.60023429	     13.42647798	     -6.48664993	     -0.88566240	     18.32283426	    -17.01127770	      4.86931067	      2.55929609	     16.06682009	      4.53919890	     -0.72713358	     -9.74574311
      4.91500000	     -8.15770033	     -2.04127103	     12.14306359	     -1.04145985	     -0.02508909	     -0.31659011	     31.77370881	     -3.26569759	     -9.17849900	    -12.52080181	     -3.64079066	      5.34242692	     14.41042161	     -6.44539916	     -1.16185025	     17.90530148	    -17.54046171	      4.48637152	      3.27221747	     17.00857356	      4.81563977	     -0.60996798	     -9.71839673
      4.92000000	     -8.23475206	     -2.31535714	     12.12731380	     -1.03469529	     -0.02575473	     -0.31580381	     31.89161105	     -2.96613150	     -9.42793633	    -13.11274297	     -4.49857686	      5.11914804	     15.20650476	     -6.41929525	     -1.56230543	     17.54301395	    -18.04765990	      4.03268288	      3.79032506	     17.78906857	      5.12941535	     -0.33439719	     -9.67341866
      4.92500000	     -8.30916464	     -2.60726049	     12.05911915	     -1.02798088	     -0.02633473	     -0.31493719	     32.03959757	     -2.61241779	     -9.54745837	    -13.74710402	     -5.26682566	      4.92409126	     15.77595505	     -6.36876217	     -1.97951434	     17.10688688	    -18.59449892	      3.55891590	      4.37178948	     18.49200430	      5.43300642	     -0.03255290	     -9.57733561
      4.93000000	     -8.38113634	     -2.94197245	     11.96826951	     -1.02129306	     -0.02681258	     -0.31402188	     32.20449792	     -2.18916797	     -9.55458039	    -14.40102016	     -5.99834273	      4.68831077	     16.20725000	     -6.28157680	     -2.44734745	     16.60315245	    -19.18012768	      3.03770018	      5.03018940	     19.24772166	      5.73574174	      0.31750200	     -9.47863545
      4.93500000	     -8.44694046	     -3.31870718	     11.84056196	     -1.01461945	     -0.02720821	     -0.31305652	     32.38157773	     -1.68618366	     -9.42167830	    -15.08230055	     -6.64509835	      4.43673891	     16.49685206	     -6.15860905	     -2.96007303	     16.04195611	    -19.82559541	      2.47531656	      5.74181850	     20.03328331	      6.03319214	      0.71947854	     -9.34133116
      4.94000000	     -8.50799081	     -3.69562813	     11.68864010	     -1.00793259	     -0.02746475	     -0.31204287	     32.55019153	     -1.13345106	     -9.08318970	    -15.75256625	     -7.41444295	      3.91646240	     16.83412904	     -6.04651232	     -3.48580063	     15.44372240	    -20.39258215	      1.54880181	      6.26191029	     21.49904692	      6.32676693	      1.12750407	     -9.17351122
      4.94500000	     -8.53880998	     -4.09986524	     11.51296059	     -1.00126467	     -0.02766178	     -0.31105843	     32.72248129	     -0.55018701	     -8.82747396	    -16.52278022	     -7.78780329	      3.79820839	     16.83754381	     -5.89484353	     -4.04519087	     14.72976042	    -21.14350522	      0.96339093	      7.21557897	     22.05801625	      6.58336422	      1.57860891	     -9.03879599
      4.95000000	     -8.58029413	     -4.49046148	     11.32973569	     -0.99457540	     -0.02779661	     -0.30993761	     32.87711307	      0.09131957	     -8.24340486	    -17.25763447	     -8.20224614	      3.21380013	     16.60646379	     -5.68785352	     -4.61790879	     13.87808873	    -21.92293846	      0.14120014	      8.20142994	     23.06986267	      6.84884382	      1.99970557	     -8.89263915
      4.95500000	     -8.59110295	     -4.88103228	     11.11486809	     -0.98783153	     -0.02783605	     -0.30882468	     32.99005118	      0.76451447	     -7.66106734	    -17.99729921	     -8.48156176	      2.70109818	     16.25494318	     -5.51169618	     -5.20128900	     13.01964660	    -22.69793245	     -0.83598315	      9.13882280	     24.22216213	      7.08332986	      2.43723580	     -8.72789424
      4.96000000	     -8.57308905	     -5.29189137	     10.90199831	     -0.98096736	     -0.02775237	     -0.30775113	     33.03937023	      1.48550535	     -7.06974445	    -18.71212294	     -8.63002620	      2.10316150	     15.47832032	     -5.37432983	     -5.81582706	     12.22015513	    -23.40274696	     -2.21276178	      9.77980831	     26.01001583	      7.31403778	      2.90523436	     -8.56336722
      4.96500000	     -8.54840486	     -5.62845074	     10.70023988	     -0.97417419	     -0.02767593	     -0.30666313	     33.05258760	      2.13615150	     -6.45318218	    -19.40546117	     -8.63098670	      1.59183505	     14.99732750	     -5.17311473	     -6.37470895	     11.31770278	    -24.28859058	     -3.31869807	     10.88510012	     26.97889682	      7.49801269	      3.28678099	     -8.44602632
      4.97000000	     -8.48941780	     -5.95372328	     10.48610715	     -0.96739094	     -0.02750320	     -0.30560999	     32.99197226	      2.80136181	     -5.83326781	    -20.04764015	     -8.59782369	      1.01898003	     14.31735438	     -4.98328477	     -6.92922111	     10.41342519	    -25.19190510	     -4.67637870	     11.81994510	     28.20867907	      7.63654708	      3.67730060	     -8.31297474
      4.97500000	     -8.42729211	     -6.25428998	     10.27739447	     -0.96049864	     -0.02729221	     -0.30456426	     32.87365901	      3.44621388	     -5.26679736	    -20.62840467	     -8.42923891	      0.46875128	     13.66454464	     -4.78761324	     -7.47297078	      9.52627964	    -26.10676741	     -6.16870176	     12.75845551	     29.39419802	      7.79099365	      4.03557645	     -8.19828878
      4.98000000	     -8.35835803	     -6.51647136	     10.08916238	     -0.95360985	     -0.02703036	     -0.30356707	     32.69260170	      4.04359494	     -4.74885538	    -21.13317488	     -8.19490534	     -0.05250403	     13.08575939	     -4.57040054	     -7.98136647	      8.69355399	    -27.06358460	     -7.76525090	     13.64959797	     30.45970935	      7.92950996	      4.35182003	     -8.10806669
      4.98500000	     -8.28922833	     -6.74612003	      9.91323221	     -0.94677562	     -0.02673331	     -0.30259036	     32.46203355	      4.60000944	     -4.28275318	    -21.56163661	     -7.90794033	     -0.54465294	     12.60728571	     -4.31476219	     -8.45909958	      7.90852789	    -28.07240734	     -9.45494156	     14.49456035	     31.41284392	      8.05207172	      4.63289726	     -8.03248267
      4.99000000	     -8.22901479	     -6.94408826	      9.75564651	     -0.93999690	     -0.02640528	     -0.30165014	     32.18917487	      5.10645657	     -3.87391858	    -21.90657003	     -7.59174040	     -0.98669429	     12.28437216	     -4.01193230	     -8.90044989	      7.20327271	    -29.13364399	    -11.20526998	     15.27880260	     32.16771807	      8.17289808	      4.87670390	     -7.97999501
      4.99500000	     -8.18351917	     -7.12707626	      9.61334056	     -0.93327642	     -0.02606220	     -0.30076177	     31.88181220	      5.57443695	     -3.54108089	    -22.16056363	     -7.25062890	     -1.37994230	     12.12007653	     -3.65012804	     -9.31738449	      6.57060607	    -30.25345131	    -12.99317508	     15.95119187	     32.71962825	      8.30178658	      5.10653903	     -7.94227907
      5.00000000	     -8.13904287	     -7.30403097	      9.53725596	     -0.92667410	     -0.02568449	     -0.30001591	     31.53632937	      5.97008888	     -3.38510439	    -22.33580187	     -6.84990028	     -1.60085438	     12.21916260	     -3.21221348	     -9.70376770	      6.07840978	    -31.48574824	    -14.69890835	     16.39550368	     32.64346610	      8.41986039	      5.32106430	     -7.97857261
      5.00500000	     -8.17647042	     -7.48401340	      9.37832547	     -0.92007553	     -0.02534168	     -0.29899545	     31.22703382	      6.43559415	     -3.04120880	    -22.40618863	     -6.63995036	     -2.11824676	     12.17958051	     -2.69858281	    -10.10236344	      5.59388472	    -32.65408972	    -16.59429126	     16.87970700	     33.13526077	      8.62154943	      5.51744465	     -7.91971919
      5.01000000	     -8.14224025	     -7.65658114	      9.33295292	     -0.91371344	     -0.02489879	     -0.29827285	     30.82024246	      6.79259340	     -2.96517757	    -22.42813671	     -6.24484463	     -2.25916595	     12.34792765	     -2.15765670	    -10.46080159	      5.28137745	    -33.96300376	    -18.32524019	     17.03541827	     32.90417456	      8.71640842	      5.72407114	     -7.98022020
      5.01500000	     -8.18798649	     -7.84084392	      9.26726172	     -0.90742608	     -0.02448482	     -0.29748737	     30.47069090	      7.15566115	     -2.88165812	    -22.37901814	     -5.95928748	     -2.46945650	     12.54660896	     -1.49809548	    -10.80670641	      5.04025461	    -35.28416099	    -20.08554528	     17.04750656	     32.74040430	      8.89005912	      5.92920764	     -7.99649172
